# xmcd CD database file
#
# Track frame offsets:
#	150
#	16379
#	29507
#	42700
#	56799
#	69386
#	81401
#	96360
#	108329
#	122626
#
# Disc length: 3117 seconds
#
# Revision: 0
# Processed by: cddbd v1.5.1PL0 Copyright (c) Steve Scherf et al.
# Submitted via: CDex 1.51
#
DISCID=8c0c2b0a
DTITLE=Jon Nicholson - Back On Your Front Porch
DYEAR=1998
DGENRE=Country
TTITLE0=Forcast Calls For Pain
TTITLE1=Back On Your Front Porch
TTITLE2=Last Man On Earth
TTITLE3=Too Good To Be True
TTITLE4=Whatever It Takes
TTITLE5=Solid Gold
TTITLE6=No One Needs To Tell You
TTITLE7=Cool Breeze
TTITLE8=It's Not What You Say
TTITLE9=Let It Burn
EXTD=YEAR: 1998
EXTT0=
EXTT1=
EXTT2=
EXTT3=
EXTT4=
EXTT5=
EXTT6=
EXTT7=
EXTT8=
EXTT9=
PLAYORDER=
